<?xml version="1.0" encoding="UTF-8" standalone="no"?>
<!-- Created with Inkscape (http://www.inkscape.org/) -->

<svg
   version="1.1"
   id="svg1"
   width="633.28101"
   height="431.84299"
   viewBox="0 0 633.28101 431.843"
   sodipodi:docname="logo.svg"
   inkscape:version="1.3.2 (091e20e, 2023-11-25, custom)"
   xmlns:inkscape="http://www.inkscape.org/namespaces/inkscape"
   xmlns:sodipodi="http://sodipodi.sourceforge.net/DTD/sodipodi-0.dtd"
   xmlns="http://www.w3.org/2000/svg"
   xmlns:svg="http://www.w3.org/2000/svg">
  <defs
     id="defs1">
    <clipPath
       clipPathUnits="userSpaceOnUse"
       id="clipPath2">
      <path
         d="M 0,792 H 612 V 0 H 0 Z"
         transform="translate(-397.70001,-520.02371)"
         id="path2" />
    </clipPath>
    <clipPath
       clipPathUnits="userSpaceOnUse"
       id="clipPath4">
      <path
         d="M 0,792 H 612 V 0 H 0 Z"
         transform="translate(-63.564701,-352.78231)"
         id="path4" />
    </clipPath>
    <clipPath
       clipPathUnits="userSpaceOnUse"
       id="clipPath6">
      <path
         d="M 0,792 H 612 V 0 H 0 Z"
         transform="translate(-538.52572,-339.82231)"
         id="path6" />
    </clipPath>
    <clipPath
       clipPathUnits="userSpaceOnUse"
       id="clipPath8">
      <path
         d="M 0,792 H 612 V 0 H 0 Z"
         transform="translate(-319.16521,-294.70221)"
         id="path8" />
    </clipPath>
    <clipPath
       clipPathUnits="userSpaceOnUse"
       id="clipPath10">
      <path
         d="M 0,792 H 612 V 0 H 0 Z"
         transform="translate(-174.4449,-294.70221)"
         id="path10" />
    </clipPath>
    <clipPath
       clipPathUnits="userSpaceOnUse"
       id="clipPath12">
      <path
         d="M 0,792 H 612 V 0 H 0 Z"
         transform="translate(-218.845,-294.70221)"
         id="path12" />
    </clipPath>
    <clipPath
       clipPathUnits="userSpaceOnUse"
       id="clipPath14">
      <path
         d="M 0,792 H 612 V 0 H 0 Z"
         transform="translate(-256.04511,-294.70221)"
         id="path14" />
    </clipPath>
    <clipPath
       clipPathUnits="userSpaceOnUse"
       id="clipPath16">
      <path
         d="M 0,792 H 612 V 0 H 0 Z"
         transform="translate(-358.16871,-362.41431)"
         id="path16" />
    </clipPath>
    <clipPath
       clipPathUnits="userSpaceOnUse"
       id="clipPath18">
      <path
         d="M 0,792 H 612 V 0 H 0 Z"
         transform="translate(-303.96751,-339.26641)"
         id="path18" />
    </clipPath>
    <clipPath
       clipPathUnits="userSpaceOnUse"
       id="clipPath20">
      <path
         d="M 0,792 H 612 V 0 H 0 Z"
         transform="translate(-118.0549,-346.09451)"
         id="path20" />
    </clipPath>
    <clipPath
       clipPathUnits="userSpaceOnUse"
       id="clipPath22">
      <path
         d="M 0,792 H 612 V 0 H 0 Z"
         transform="translate(-179.2563,-346.20951)"
         id="path22" />
    </clipPath>
    <clipPath
       clipPathUnits="userSpaceOnUse"
       id="clipPath24">
      <path
         d="M 0,792 H 612 V 0 H 0 Z"
         transform="translate(-254.3605,-348.98501)"
         id="path24" />
    </clipPath>
    <clipPath
       clipPathUnits="userSpaceOnUse"
       id="clipPath26">
      <path
         d="M 0,792 H 612 V 0 H 0 Z"
         transform="translate(-282.41311,-348.99131)"
         id="path26" />
    </clipPath>
    <clipPath
       clipPathUnits="userSpaceOnUse"
       id="clipPath28">
      <path
         d="M 0,792 H 612 V 0 H 0 Z"
         transform="translate(-382.13201,-346.01271)"
         id="path28" />
    </clipPath>
    <clipPath
       clipPathUnits="userSpaceOnUse"
       id="clipPath30">
      <path
         d="M 0,792 H 612 V 0 H 0 Z"
         transform="translate(-480.29211,-346.01071)"
         id="path30" />
    </clipPath>
    <clipPath
       clipPathUnits="userSpaceOnUse"
       id="clipPath32">
      <path
         d="M 0,792 H 612 V 0 H 0 Z"
         transform="translate(-421.50241,-334.39651)"
         id="path32" />
    </clipPath>
    <clipPath
       clipPathUnits="userSpaceOnUse"
       id="clipPath34">
      <path
         d="M 0,792 H 612 V 0 H 0 Z"
         transform="translate(-195.23211,-357.96981)"
         id="path34" />
    </clipPath>
    <clipPath
       clipPathUnits="userSpaceOnUse"
       id="clipPath36">
      <path
         d="M 0,792 H 612 V 0 H 0 Z"
         transform="translate(-490.32031,-358.01221)"
         id="path36" />
    </clipPath>
    <clipPath
       clipPathUnits="userSpaceOnUse"
       id="clipPath38">
      <path
         d="M 0,792 H 612 V 0 H 0 Z"
         transform="translate(-219.81201,-352.78181)"
         id="path38" />
    </clipPath>
    <clipPath
       clipPathUnits="userSpaceOnUse"
       id="clipPath40">
      <path
         d="M 0,792 H 612 V 0 H 0 Z"
         transform="translate(-446.11471,-339.98881)"
         id="path40" />
    </clipPath>
    <clipPath
       clipPathUnits="userSpaceOnUse"
       id="clipPath42">
      <path
         d="M 0,792 H 612 V 0 H 0 Z"
         transform="translate(-145.77831,-334.34521)"
         id="path42" />
    </clipPath>
    <clipPath
       clipPathUnits="userSpaceOnUse"
       id="clipPath44">
      <path
         d="M 0,792 H 612 V 0 H 0 Z"
         id="path44" />
    </clipPath>
    <clipPath
       clipPathUnits="userSpaceOnUse"
       id="clipPath46">
      <path
         d="M 0,792 H 612 V 0 H 0 Z"
         id="path46" />
    </clipPath>
    <clipPath
       clipPathUnits="userSpaceOnUse"
       id="clipPath48">
      <path
         d="M 0,792 H 612 V 0 H 0 Z"
         id="path48" />
    </clipPath>
    <clipPath
       clipPathUnits="userSpaceOnUse"
       id="clipPath50">
      <path
         d="M 0,792 H 612 V 0 H 0 Z"
         transform="translate(-427.88621,-301.09911)"
         id="path50" />
    </clipPath>
    <clipPath
       clipPathUnits="userSpaceOnUse"
       id="clipPath52">
      <path
         d="M 0,792 H 612 V 0 H 0 Z"
         transform="translate(-334.74031,-297.5398)"
         id="path52" />
    </clipPath>
    <clipPath
       clipPathUnits="userSpaceOnUse"
       id="clipPath54">
      <path
         d="M 0,792 H 612 V 0 H 0 Z"
         transform="translate(-191.9238,-297.5398)"
         id="path54" />
    </clipPath>
    <clipPath
       clipPathUnits="userSpaceOnUse"
       id="clipPath56">
      <path
         d="M 0,792 H 612 V 0 H 0 Z"
         transform="translate(-242.5627,-297.5398)"
         id="path56" />
    </clipPath>
    <clipPath
       clipPathUnits="userSpaceOnUse"
       id="clipPath58">
      <path
         d="M 0,792 H 612 V 0 H 0 Z"
         transform="translate(-365.26901,-297.5398)"
         id="path58" />
    </clipPath>
    <clipPath
       clipPathUnits="userSpaceOnUse"
       id="clipPath60">
      <path
         d="M 0,792 H 612 V 0 H 0 Z"
         transform="translate(-406.25701,-302.41041)"
         id="path60" />
    </clipPath>
    <clipPath
       clipPathUnits="userSpaceOnUse"
       id="clipPath62">
      <path
         d="M 0,792 H 612 V 0 H 0 Z"
         transform="translate(-414.21101,-302.44741)"
         id="path62" />
    </clipPath>
    <clipPath
       clipPathUnits="userSpaceOnUse"
       id="clipPath64">
      <path
         d="M 0,792 H 612 V 0 H 0 Z"
         transform="translate(-284.1664,-304.54101)"
         id="path64" />
    </clipPath>
    <clipPath
       clipPathUnits="userSpaceOnUse"
       id="clipPath66">
      <path
         d="M 0,792 H 612 V 0 H 0 Z"
         transform="translate(-295.40601,-295.22971)"
         id="path66" />
    </clipPath>
    <clipPath
       clipPathUnits="userSpaceOnUse"
       id="clipPath68">
      <path
         d="M 0,792 H 612 V 0 H 0 Z"
         transform="translate(-374.43711,-306.90901)"
         id="path68" />
    </clipPath>
    <clipPath
       clipPathUnits="userSpaceOnUse"
       id="clipPath70">
      <path
         d="M 0,792 H 612 V 0 H 0 Z"
         transform="translate(-228.2542,-304.31671)"
         id="path70" />
    </clipPath>
    <clipPath
       clipPathUnits="userSpaceOnUse"
       id="clipPath72">
      <path
         d="M 0,792 H 612 V 0 H 0 Z"
         transform="translate(-395.60011,-295.5652)"
         id="path72" />
    </clipPath>
    <clipPath
       clipPathUnits="userSpaceOnUse"
       id="clipPath74">
      <path
         d="M 0,792 H 612 V 0 H 0 Z"
         transform="translate(-207.42801,-297.8653)"
         id="path74" />
    </clipPath>
    <clipPath
       clipPathUnits="userSpaceOnUse"
       id="clipPath76">
      <path
         d="M 0,792 H 612 V 0 H 0 Z"
         transform="translate(-264.4444,-304.46591)"
         id="path76" />
    </clipPath>
    <clipPath
       clipPathUnits="userSpaceOnUse"
       id="clipPath78">
      <path
         d="M 0,792 H 612 V 0 H 0 Z"
         transform="translate(-352.09041,-295.23301)"
         id="path78" />
    </clipPath>
    <clipPath
       clipPathUnits="userSpaceOnUse"
       id="clipPath80">
      <path
         d="M 0,792 H 612 V 0 H 0 Z"
         transform="translate(-128.3647,-364.65121)"
         id="path80" />
    </clipPath>
    <clipPath
       clipPathUnits="userSpaceOnUse"
       id="clipPath82">
      <path
         d="M 0,792 H 612 V 0 H 0 Z"
         transform="translate(-453.72501,-361.19841)"
         id="path82" />
    </clipPath>
    <clipPath
       clipPathUnits="userSpaceOnUse"
       id="clipPath84">
      <path
         d="M 0,792 H 612 V 0 H 0 Z"
         id="path84" />
    </clipPath>
    <clipPath
       clipPathUnits="userSpaceOnUse"
       id="clipPath86">
      <path
         d="M 0,792 H 612 V 0 H 0 Z"
         id="path86" />
    </clipPath>
    <clipPath
       clipPathUnits="userSpaceOnUse"
       id="clipPath88">
      <path
         d="M 0,792 H 612 V 0 H 0 Z"
         id="path88" />
    </clipPath>
    <clipPath
       clipPathUnits="userSpaceOnUse"
       id="clipPath90">
      <path
         d="M 0,792 H 612 V 0 H 0 Z"
         transform="translate(-213.18901,-310.19231)"
         id="path90" />
    </clipPath>
    <clipPath
       clipPathUnits="userSpaceOnUse"
       id="clipPath92">
      <path
         d="M 0,792 H 612 V 0 H 0 Z"
         transform="translate(-346.86931,-310.19601)"
         id="path92" />
    </clipPath>
    <clipPath
       clipPathUnits="userSpaceOnUse"
       id="clipPath94">
      <path
         d="M 0,792 H 612 V 0 H 0 Z"
         transform="translate(-276.06891,-310.21401)"
         id="path94" />
    </clipPath>
    <clipPath
       clipPathUnits="userSpaceOnUse"
       id="clipPath96">
      <path
         d="M 0,792 H 612 V 0 H 0 Z"
         transform="translate(-233.75361,-520.23832)"
         id="path96" />
    </clipPath>
    <clipPath
       clipPathUnits="userSpaceOnUse"
       id="clipPath98">
      <path
         d="M 0,792 H 612 V 0 H 0 Z"
         transform="translate(-381.26981,-537.16391)"
         id="path98" />
    </clipPath>
  </defs>
  <sodipodi:namedview
     id="namedview1"
     pagecolor="#505050"
     bordercolor="#ffffff"
     borderopacity="1"
     inkscape:showpageshadow="0"
     inkscape:pageopacity="0"
     inkscape:pagecheckerboard="1"
     inkscape:deskcolor="#505050"
     inkscape:zoom="0.76988636"
     inkscape:cx="407.8524"
     inkscape:cy="221.46125"
     inkscape:window-width="1920"
     inkscape:window-height="1009"
     inkscape:window-x="1921"
     inkscape:window-y="-8"
     inkscape:window-maximized="1"
     inkscape:current-layer="layer-MC0">
    <inkscape:page
       x="0"
       y="0"
       inkscape:label="1"
       id="page1"
       width="633.28101"
       height="431.84299"
       margin="392.936 97.965332 222.10266 84.75293"
       bleed="0" />
  </sodipodi:namedview>
  <g
     id="layer-MC0"
     inkscape:groupmode="layer"
     inkscape:label="Layer 1"
     transform="translate(-3.3125e-6,392.936)">
    <path
       id="path1"
       d="m 0,0 c 0.064,52.645 -42.503,95.26 -95.266,95.373 -52.605,0.112 -95.23,-42.437 -95.404,-95.235 -0.174,-52.606 42.594,-95.421 95.326,-95.433 C -42.65,-95.307 -0.064,-52.743 0,0 m -89.335,105.399 c 1.125,-0.145 2.246,-0.328 3.375,-0.43 21.198,-1.926 40.16,-9.501 56.68,-22.889 C -9.517,66.062 3.015,45.499 8.016,20.542 18.792,-33.24 -13.824,-86.404 -66.636,-101.365 c -12.04,-3.411 -24.322,-4.653 -36.79,-3.658 -44.201,3.528 -81.17,33.784 -93.29,76.322 -3.552,12.469 -4.738,25.179 -3.544,38.097 3.958,42.791 32.921,78.654 73.73,91.302 7.971,2.47 16.12,3.967 24.45,4.485 0.252,0.016 0.497,0.142 0.745,0.216 z"
       style="fill:#228b22;fill-opacity:1;fill-rule:nonzero;stroke:none"
       transform="matrix(1.3333326,0,0,-1.3333333,445.5135,-252.404)"
       clip-path="url(#clipPath2)" />
    <path
       id="path3"
       d="m 0,0 c 0.237,1.074 0.431,2.16 0.718,3.22 1.726,6.382 5.65,10.643 12.137,12.294 6.434,1.638 13.518,-0.282 17.418,-4.659 C 28.929,9.617 27.581,8.375 26.176,7.08 24.278,8.707 21.939,9.803 19.25,10.143 12.889,10.947 7.418,6.927 6.527,0.585 6.27,-1.242 6.264,-3.193 6.607,-4.999 c 0.903,-4.749 4.645,-7.831 9.488,-8.223 3.081,-0.249 5.999,0.119 8.516,2.063 0.396,0.306 0.722,0.941 0.752,1.443 0.094,1.624 0.035,3.258 0.035,5.002 h -8.536 v 5.615 h 14.339 v -4.197 c 0,-2.679 -0.094,-5.363 0.037,-8.036 0.072,-1.475 -0.459,-2.446 -1.501,-3.4 -4.132,-3.777 -9.049,-4.969 -14.44,-4.315 -2.15,0.261 -4.36,0.771 -6.327,1.649 -5.273,2.354 -7.872,6.763 -8.727,12.331 C 0.204,-4.812 0.083,-4.569 0,-4.32 Z"
       style="fill:#228b22;fill-opacity:1;fill-rule:nonzero;stroke:none"
       transform="matrix(1.3333326,0,0,-1.3333333,3.3125e-6,-41.023504)"
       clip-path="url(#clipPath4)" />
    <path
       id="path5"
       d="m 0,0 c -1.589,-4.696 -5.262,-6.131 -9.78,-6.276 -3.918,-0.126 -7.548,0.621 -10.553,3.353 -0.206,0.188 -0.413,0.376 -0.609,0.576 -0.081,0.083 -0.132,0.195 -0.234,0.352 0.918,1.324 1.844,2.66 2.808,4.05 2.071,-1.833 4.47,-2.734 7.073,-3.157 1.459,-0.237 2.877,-0.115 4.164,0.673 0.828,0.507 1.401,1.231 1.29,2.264 -0.115,1.064 -0.86,1.621 -1.83,1.79 -1.608,0.28 -3.258,0.356 -4.845,0.715 -1.541,0.349 -3.134,0.741 -4.515,1.471 -4.222,2.233 -4.577,7.86 -0.801,10.796 3.855,2.997 12.783,3.098 16.691,-1.003 -1.043,-1.228 -2.094,-2.465 -3.202,-3.769 -2.389,2.008 -5.097,2.411 -8.01,1.859 -0.195,-0.036 -0.388,-0.091 -0.575,-0.157 -0.922,-0.327 -1.672,-0.842 -1.693,-1.926 -0.023,-1.126 0.678,-1.814 1.677,-2.057 1.271,-0.308 2.584,-0.45 3.882,-0.646 C -8.234,8.782 -7.394,8.727 -6.572,8.57 -3.388,7.961 -0.965,6.415 0,3.12 Z"
       style="fill:#228b22;fill-opacity:1;fill-rule:nonzero;stroke:none"
       transform="matrix(1.3333326,0,0,-1.3333333,633.281,-23.743504)"
       clip-path="url(#clipPath6)" />
    <path
       id="path7"
       d="m 0,0 c -0.157,0.08 -0.307,0.21 -0.472,0.233 -5.845,0.781 -8.889,5.417 -7.331,11.179 1.737,6.423 9.911,8.574 14.77,3.749 C 6.289,14.574 5.611,13.985 4.904,13.372 2.989,14.824 0.8,15.408 -1.603,14.405 -3.883,13.452 -4.871,11.559 -5.024,9.206 -5.168,6.986 -4.513,5.017 -2.466,3.909 -0.332,2.753 1.903,2.73 4.012,4.091 4.283,4.265 4.501,4.694 4.535,5.027 4.612,5.775 4.559,6.536 4.559,7.387 H 0.314 v 2.83 H 7.438 C 7.438,7.948 7.458,5.721 7.414,3.494 7.409,3.195 7.129,2.852 6.891,2.615 5.449,1.184 3.713,0.374 1.674,0.227 1.432,0.209 1.198,0.078 0.96,0 Z"
       style="fill:#020202;fill-opacity:1;fill-rule:nonzero;stroke:none"
       transform="matrix(1.3333311,0,0,-1.3333333,340.80027,30.907266)"
       clip-path="url(#clipPath8)" />
    <path
       id="path9"
       d="M 0,0 C -0.82,0.249 -1.665,0.44 -2.456,0.76 -4.041,1.403 -5.152,2.531 -5.732,4.2 -4.879,4.644 -4.071,5.065 -3.266,5.484 -1.44,3.139 0.923,2.332 3.564,3.135 4.797,3.51 5.545,4.362 5.515,5.407 5.481,6.615 4.655,7.191 3.642,7.444 2.369,7.762 1.053,7.899 -0.233,8.171 c -2.241,0.474 -4.268,1.27 -4.729,3.889 -0.316,1.795 0.211,3.318 1.711,4.431 2.44,1.811 7.185,1.876 9.628,0.067 C 7.055,16.057 7.568,15.335 8.241,14.625 7.256,14.109 6.486,13.705 5.695,13.29 4.184,14.882 2.354,15.422 0.244,14.981 -1.142,14.692 -1.941,13.941 -1.91,12.943 -1.87,11.6 -0.821,11.29 0.205,11.051 2.025,10.627 3.927,10.452 5.671,9.828 8.547,8.8 9.567,5.202 7.861,2.673 6.853,1.178 5.316,0.567 3.625,0.234 3.371,0.183 3.128,0.079 2.88,0 Z"
       style="fill:#020202;fill-opacity:1;fill-rule:nonzero;stroke:none"
       transform="matrix(1.3333311,0,0,-1.3333333,147.84018,30.907266)"
       clip-path="url(#clipPath10)" />
    <path
       id="path11"
       d="m 0,0 c -0.96,0.417 -1.938,0.798 -2.871,1.268 -0.408,0.206 -0.725,0.593 -1.126,0.934 0.474,0.686 0.898,1.299 1.263,1.827 C -1.533,3.571 -0.431,3.036 0.732,2.754 1.377,2.597 2.176,2.735 2.807,2.988 3.171,3.133 3.531,3.772 3.528,4.187 3.526,4.488 2.97,4.942 2.584,5.05 1.747,5.284 0.853,5.304 -0.003,5.479 c -0.58,0.119 -1.17,0.287 -1.699,0.548 -2.294,1.135 -2.572,4.066 -0.558,5.635 2.078,1.619 6.174,1.356 8.124,-0.551 C 5.389,10.531 4.912,9.948 4.614,9.584 3.27,9.848 2.108,10.175 0.927,10.272 0.178,10.334 -0.678,10.057 -0.695,9.065 -0.711,8.14 0.088,7.947 0.805,7.817 1.588,7.676 2.396,7.662 3.174,7.502 5.451,7.036 6.513,5.862 6.48,3.926 6.449,2.103 5.046,0.637 2.982,0.254 2.702,0.202 2.434,0.086 2.16,0 Z"
       style="fill:#020202;fill-opacity:1;fill-rule:nonzero;stroke:none"
       transform="matrix(1.3333311,0,0,-1.3333333,207.04022,30.907266)"
       clip-path="url(#clipPath12)" />
    <path
       id="path13"
       d="m 0,0 c -0.204,0.091 -0.401,0.207 -0.614,0.271 -2.706,0.803 -4.159,2.6 -4.402,5.462 -0.237,2.782 0.957,5.112 3.175,6.193 C 0.6,13.115 3.392,12.734 5.491,10.841 4.909,10.216 4.327,9.593 3.759,8.984 1.445,10.199 -0.232,10.055 -1.372,8.588 -2.406,7.259 -2.354,5.152 -1.259,3.933 -0.059,2.597 1.767,2.531 3.9,3.773 4.493,3.209 5.096,2.636 5.756,2.008 4.87,0.756 3.464,0.467 2.16,0 Z"
       style="fill:#020202;fill-opacity:1;fill-rule:nonzero;stroke:none"
       transform="matrix(1.3333311,0,0,-1.3333333,256.64027,30.907266)"
       clip-path="url(#clipPath14)" />
    <path
       id="path15"
       d="m 0,0 c -1.666,-0.86 -3.285,-1.695 -4.914,-2.535 -3.222,3.538 -7.157,4.381 -11.591,3.196 -0.851,-0.227 -1.714,-0.723 -2.367,-1.319 -1.863,-1.701 -1.541,-4.434 0.753,-5.438 1.615,-0.707 3.434,-0.966 5.175,-1.365 2.561,-0.587 5.198,-0.92 7.685,-1.724 3.808,-1.231 6.012,-3.966 6.305,-8.039 0.31,-4.303 -1.24,-7.736 -5.168,-9.729 -5.148,-2.612 -10.567,-2.573 -15.978,-0.983 -3.736,1.098 -6.092,3.466 -7.655,7.224 1.704,0.894 3.421,1.794 5.239,2.747 1.069,-2.379 2.883,-3.891 5.317,-4.679 2.662,-0.862 5.348,-0.905 8.026,-0.146 2.943,0.834 4.411,2.996 3.814,5.452 -0.334,1.373 -1.244,2.312 -2.493,2.7 -1.929,0.599 -3.94,0.93 -5.906,1.415 -2.469,0.608 -5.011,1.037 -7.37,1.941 -3.23,1.239 -4.9,3.845 -5.138,7.31 -0.249,3.635 1.064,6.619 4.27,8.365 5.93,3.229 12.007,3.177 17.99,0.057 C -2.206,3.511 -0.917,1.971 0,0"
       style="fill:#228b22;fill-opacity:1;fill-rule:nonzero;stroke:none"
       transform="matrix(1.3333326,0,0,-1.3333333,392.80513,-53.866174)"
       clip-path="url(#clipPath16)" />
    <path
       id="path17"
       d="m 0,0 c 3.882,-0.006 6.764,2.895 6.793,6.839 0.028,3.959 -2.909,6.949 -6.822,6.945 -3.87,-0.005 -6.598,-2.821 -6.61,-6.822 C -6.652,2.944 -3.85,0.006 0,0 M 7.167,15.893 V 28.56 h 5.812 V -4.907 H 7.572 c -0.126,0.982 -0.248,1.92 -0.367,2.847 -0.086,0 -0.198,0.032 -0.228,-0.004 -3.008,-3.67 -6.945,-3.96 -11.118,-2.853 -4.311,1.144 -6.975,4.064 -7.991,8.392 -0.659,2.81 -0.556,5.636 0.382,8.391 2.608,7.665 12.84,10.01 18.531,4.257 0.049,-0.05 0.122,-0.074 0.386,-0.23"
       style="fill:#228b22;fill-opacity:1;fill-rule:nonzero;stroke:none"
       transform="matrix(1.3333326,0,0,-1.3333333,320.5369,-23.002304)"
       clip-path="url(#clipPath18)" />
    <path
       id="path19"
       d="M 0,0 C 0.024,4.284 -2.774,7.253 -6.866,7.287 -10.997,7.321 -13.902,4.4 -13.927,0.184 -13.952,-4.11 -11.076,-7.105 -6.922,-7.109 -2.875,-7.114 -0.024,-4.185 0,0 M 5.875,-11.766 H 0.44 c -0.1,0.997 -0.198,1.97 -0.319,3.17 -1.616,-2.186 -3.691,-3.286 -6.157,-3.752 -6.81,-1.287 -13.029,3.383 -13.655,10.277 -0.26,2.866 -0.103,5.668 1.187,8.311 2.688,5.51 10.521,7.998 15.871,4.981 0.986,-0.555 1.809,-1.399 2.782,-2.169 0.051,0.896 0.104,1.825 0.161,2.837 h 5.565 z"
       style="fill:#228b22;fill-opacity:1;fill-rule:nonzero;stroke:none"
       transform="matrix(1.3333326,0,0,-1.3333333,72.653562,-32.106434)"
       clip-path="url(#clipPath20)" />
    <path
       id="path21"
       d="m 0,0 c -0.007,4.25 -2.893,7.212 -6.982,7.168 -4.146,-0.045 -6.962,-2.969 -6.947,-7.214 0.015,-4.221 2.891,-7.17 7.001,-7.178 C -2.836,-7.232 0.007,-4.267 0,0 m 0.434,-11.856 c -0.1,0.994 -0.199,1.968 -0.306,3.029 -3.704,-4.219 -8.185,-4.645 -13.013,-2.823 -4.198,1.585 -6.199,4.982 -6.772,9.271 -0.363,2.722 -0.189,5.426 0.918,8.001 2.519,5.861 10.605,8.627 16.144,5.468 0.977,-0.557 1.792,-1.398 2.746,-2.159 0.052,0.929 0.105,1.862 0.161,2.859 h 5.576 v -23.646 z"
       style="fill:#228b22;fill-opacity:1;fill-rule:nonzero;stroke:none"
       transform="matrix(1.3333326,0,0,-1.3333333,154.25539,-32.259774)"
       clip-path="url(#clipPath22)" />
    <path
       id="path23"
       d="M 0,0 C -0.35,2.847 -2.53,4.475 -5.89,4.51 -9.342,4.546 -12.089,2.678 -12.466,0 Z m -12.752,-4.823 c 0.45,-2.499 1.855,-3.906 3.984,-4.569 3.387,-1.055 6.525,-0.401 9.501,1.666 1.136,-1.247 2.288,-2.511 3.591,-3.941 -1.157,-0.708 -2.338,-1.607 -3.655,-2.203 -3.309,-1.497 -6.798,-1.746 -10.316,-0.925 -5.944,1.387 -9.354,6.085 -9.153,12.457 0.237,7.513 5.646,12.465 13.177,11.992 1.384,-0.087 2.799,-0.279 4.117,-0.688 4.249,-1.317 6.914,-4.944 7.244,-9.734 0.091,-1.307 0.014,-2.626 0.014,-4.055 z"
       style="fill:#228b22;fill-opacity:1;fill-rule:nonzero;stroke:none"
       transform="matrix(1.3333326,0,0,-1.3333333,254.39426,-35.960434)"
       clip-path="url(#clipPath24)" />
    <path
       id="path25"
       d="M 0,0 C -0.171,3.242 -3.26,4.539 -6.032,4.513 -9.401,4.482 -12.222,2.506 -12.405,0 Z m 5.782,-4.901 h -18.475 c 0.309,-2.125 1.503,-3.45 3.324,-4.267 3.019,-1.353 7.09,-0.776 10.006,1.407 1.152,-1.248 2.309,-2.501 3.654,-3.957 -1.133,-0.68 -2.373,-1.602 -3.75,-2.219 -3.237,-1.45 -6.657,-1.66 -10.092,-0.887 -5.937,1.337 -9.389,6.04 -9.225,12.407 0.192,7.518 5.568,12.497 13.108,12.069 1.384,-0.078 2.799,-0.268 4.121,-0.666 4.289,-1.294 7.004,-4.979 7.316,-9.807 0.085,-1.305 0.013,-2.62 0.013,-4.08"
       style="fill:#228b22;fill-opacity:1;fill-rule:nonzero;stroke:none"
       transform="matrix(1.3333326,0,0,-1.3333333,291.79771,-35.968834)"
       clip-path="url(#clipPath26)" />
    <path
       id="path27"
       d="m 0,0 c 0.074,3.815 -2.419,6.827 -5.94,7.177 -3.382,0.336 -6.184,-2.076 -6.793,-5.847 -0.643,-3.981 1.751,-7.596 5.32,-8.033 C -3.111,-7.23 -0.088,-4.496 0,0 M -6.379,12.53 C 0.755,12.517 5.917,7.318 5.914,0.15 5.91,-7.17 0.859,-12.206 -6.47,-12.195 c -7.188,0.01 -12.256,5.149 -12.224,12.394 0.033,7.23 5.141,12.344 12.315,12.331"
       style="fill:#228b22;fill-opacity:1;fill-rule:nonzero;stroke:none"
       transform="matrix(1.3333326,0,0,-1.3333333,424.75617,-31.997374)"
       clip-path="url(#clipPath28)" />
    <path
       id="path29"
       d="m 0,0 c 0.076,3.815 -2.416,6.828 -5.938,7.179 -3.381,0.337 -6.184,-2.074 -6.795,-5.845 -0.644,-3.98 1.75,-7.597 5.319,-8.035 C -3.112,-7.228 -0.089,-4.496 0,0 m -18.694,0.168 c 0,7.215 5.121,12.37 12.282,12.364 C 0.733,12.527 5.91,7.341 5.914,0.185 5.918,-7.146 0.878,-12.198 -6.436,-12.194 c -7.202,0.004 -12.258,5.103 -12.258,12.362"
       style="fill:#228b22;fill-opacity:1;fill-rule:nonzero;stroke:none"
       transform="matrix(1.3333326,0,0,-1.3333333,555.63624,-31.994704)"
       clip-path="url(#clipPath30)" />
    <path
       id="path31"
       d="M 0,0 C -0.132,0.927 -0.259,1.816 -0.409,2.869 -0.781,2.555 -1.046,2.336 -1.307,2.112 -4.493,-0.63 -8.111,-1.369 -12.025,0.113 c -3.919,1.485 -5.741,4.771 -5.984,8.672 -0.304,4.89 -0.073,9.814 -0.073,14.802 h 5.746 c 0,-0.377 -10e-4,-0.761 0,-1.146 0.002,-3.878 -0.046,-7.756 0.02,-11.632 0.074,-4.304 3.315,-6.869 7.254,-5.835 2.585,0.678 4.435,3.267 4.468,6.408 0.042,4.035 0.01,8.071 0.01,12.196 H 5.17 V 0 Z"
       style="fill:#228b22;fill-opacity:1;fill-rule:nonzero;stroke:none"
       transform="matrix(1.3333326,0,0,-1.3333333,477.25002,-16.509104)"
       clip-path="url(#clipPath32)" />
    <path
       id="path33"
       d="m 0,0 c 0.127,-0.99 0.248,-1.935 0.391,-3.052 0.426,0.354 0.777,0.647 1.129,0.939 3.05,2.541 6.484,3.229 10.189,1.826 3.679,-1.393 5.598,-4.355 6.091,-8.099 0.357,-2.716 0.239,-5.497 0.285,-8.25 0.039,-2.307 0.008,-4.615 0.008,-6.975 h -5.894 c 0,2.445 0.006,4.835 -10e-4,7.224 -0.007,1.958 0.054,3.921 -0.063,5.873 -0.195,3.251 -2.14,5.325 -5.042,5.548 C 4.099,-4.737 1.508,-6.683 0.821,-9.74 0.648,-10.511 0.589,-11.321 0.584,-12.114 0.56,-15.908 0.573,-19.703 0.573,-23.583 h -5.75 V 0 Z"
       style="fill:#228b22;fill-opacity:1;fill-rule:nonzero;stroke:none"
       transform="matrix(1.3333326,0,0,-1.3333333,175.55644,-47.940174)"
       clip-path="url(#clipPath34)" />
    <path
       id="path35"
       d="m 0,0 h 5.136 c 0.136,-1.005 0.268,-1.973 0.372,-2.738 1.713,0.916 3.35,2.165 5.195,2.708 5.808,1.706 11.355,-2.112 12.265,-8.332 0.281,-1.923 0.242,-3.9 0.267,-5.854 0.04,-3.112 0.011,-6.226 0.011,-9.417 h -5.894 c 0,0.411 0,0.838 0,1.265 0,3.517 0.01,7.034 -0.009,10.55 -0.004,0.796 -0.022,1.611 -0.187,2.384 -0.591,2.761 -2.604,4.406 -5.325,4.438 C 9.073,-4.963 6.698,-6.804 6.01,-9.603 5.803,-10.445 5.744,-11.34 5.738,-12.212 5.71,-16.001 5.726,-19.79 5.726,-23.645 H 0 Z"
       style="fill:#228b22;fill-opacity:1;fill-rule:nonzero;stroke:none"
       transform="matrix(1.3333326,0,0,-1.3333333,569.00717,-47.996704)"
       clip-path="url(#clipPath36)" />
    <path
       id="path37"
       d="m 0,0 h -2.275 -2.068 v 4.991 h 4.319 v 6.147 c 1.99,0.213 3.881,0.415 5.859,0.626 V 5.082 h 6.524 V 0.074 H 5.795 v -1.856 c 0,-2.518 -0.001,-5.036 0.001,-7.554 0.003,-3.595 1.756,-4.843 5.16,-3.68 0.224,0.076 0.447,0.151 0.725,0.245 0.114,-0.297 0.239,-0.586 0.337,-0.884 0.436,-1.317 0.864,-2.637 1.337,-4.082 -3.353,-1.17 -6.62,-1.651 -9.79,0.121 -2.647,1.481 -3.483,4.072 -3.546,6.913 C -0.059,-7.19 0,-3.675 0,0"
       style="fill:#228b22;fill-opacity:1;fill-rule:nonzero;stroke:none"
       transform="matrix(1.3333326,0,0,-1.3333333,208.32963,-41.022834)"
       clip-path="url(#clipPath38)" />
    <path
       id="path39"
       d="m 0,0 c 0.534,-1.636 1.051,-3.219 1.616,-4.949 -3.422,-1.166 -6.759,-1.682 -9.977,0.24 -2.511,1.5 -3.301,4.03 -3.362,6.778 -0.077,3.514 -0.019,7.031 -0.019,10.682 h -4.335 v 5.06 h 4.295 v 6.115 c 1.988,0.215 3.878,0.419 5.892,0.637 v -6.716 h 6.5 V 12.795 H -5.906 C -5.906,9.171 -6.005,5.662 -5.868,2.161 -5.787,0.109 -4.235,-0.93 -2.192,-0.59 -1.489,-0.474 -0.808,-0.222 0,0"
       style="fill:#228b22;fill-opacity:1;fill-rule:nonzero;stroke:none"
       transform="matrix(1.3333326,0,0,-1.3333333,510.0664,-23.965504)"
       clip-path="url(#clipPath40)" />
    <path
       id="path41"
       d="m 0,0 h -5.833 v 23.607 h 5.386 c 0.127,-0.76 0.256,-1.539 0.391,-2.35 0.099,0.026 0.26,0.019 0.301,0.085 2.346,3.844 8.71,3.446 11.686,1.361 0.617,-0.432 0.856,-0.798 0.424,-1.542 C 11.575,19.82 10.901,18.417 10.127,16.934 8.355,18.317 6.41,18.736 4.272,18.247 1.792,17.679 0.199,16.048 0.108,13.509 -0.033,9.516 0.026,5.516 0,1.519 -0.003,1.045 0,0.572 0,0"
       style="fill:#228b22;fill-opacity:1;fill-rule:nonzero;stroke:none"
       transform="matrix(1.3333326,0,0,-1.3333333,109.61808,-16.440704)"
       clip-path="url(#clipPath42)" />
    <path
       id="path43"
       d="m 392.201,367.871 h 5.646 v -33.499 h -5.646 z"
       style="fill:#228b22;fill-opacity:1;fill-rule:nonzero;stroke:none"
       transform="matrix(1.3333326,0,0,-1.3333333,-84.752888,429.3529)"
       clip-path="url(#clipPath44)" />
    <path
       id="path45"
       d="m 128.949,358.013 h 5.747 V 334.35 h -5.747 z"
       style="fill:#228b22;fill-opacity:1;fill-rule:nonzero;stroke:none"
       transform="matrix(1.3333326,0,0,-1.3333333,-84.752888,429.3529)"
       clip-path="url(#clipPath46)" />
    <path
       id="path47"
       d="m 451.031,358.015 h 5.746 v -23.663 h -5.746 z"
       style="fill:#228b22;fill-opacity:1;fill-rule:nonzero;stroke:none"
       transform="matrix(1.3333326,0,0,-1.3333333,-84.752888,429.3529)"
       clip-path="url(#clipPath48)" />
    <path
       id="path49"
       d="m 0,0 c 0.005,-1.971 1.469,-3.487 3.352,-3.471 1.914,0.015 3.36,1.508 3.366,3.475 C 6.725,1.946 5.258,3.435 3.333,3.442 1.37,3.45 -0.005,2.03 0,0 M 6.822,10.843 H 9.84 c 0,-2.822 0,-5.604 0,-8.386 0,-2.749 0,-5.497 0,-8.31 H 7.147 C 7.07,-5.432 6.993,-5.008 6.891,-4.452 5.73,-5.728 4.312,-6.283 2.639,-6.137 0.985,-5.993 -0.466,-5.413 -1.56,-4.12 -3.459,-1.878 -3.382,2.282 -1.416,4.41 0.606,6.6 3.963,6.734 6.822,4.65 Z"
       style="fill:#020202;fill-opacity:1;fill-rule:nonzero;stroke:none"
       transform="matrix(1.3333311,0,0,-1.3333333,485.76136,22.378066)"
       clip-path="url(#clipPath50)" />
    <path
       id="path51"
       d="M 0,0 C 2.086,-0.015 3.517,1.417 3.519,3.519 3.52,5.578 2.136,7.016 0.126,7.045 -2.065,7.076 -3.528,5.669 -3.53,3.527 -3.533,1.444 -2.103,0.015 0,0 M 3.579,8.17 C 3.624,8.635 3.657,8.98 3.693,9.36 H 6.436 V -2.284 H 3.734 C 3.683,-1.79 3.637,-1.332 3.575,-0.728 2.37,-2.16 0.902,-2.717 -0.815,-2.634 c -1.573,0.076 -2.979,0.586 -4.077,1.748 -2.131,2.259 -2.079,6.812 0.08,9.022 2.21,2.263 5.844,2.319 8.391,0.034"
       style="fill:#020202;fill-opacity:1;fill-rule:nonzero;stroke:none"
       transform="matrix(1.3333311,0,0,-1.3333333,361.56704,27.123806)"
       clip-path="url(#clipPath52)" />
    <path
       id="path53"
       d="M 0,0 C 2.088,-0.021 3.525,1.404 3.535,3.503 3.545,5.566 2.167,7.01 0.158,7.045 -2.036,7.082 -3.502,5.684 -3.514,3.543 -3.525,1.459 -2.099,0.021 0,0 M 3.755,-2.279 C 3.703,-1.8 3.653,-1.339 3.588,-0.733 2.362,-2.186 0.861,-2.737 -0.904,-2.626 c -1.532,0.097 -2.893,0.606 -3.961,1.73 -2.174,2.287 -2.089,6.902 0.143,9.106 2.227,2.2 5.837,2.222 8.299,-0.042 0.05,0.431 0.091,0.79 0.138,1.188 H 6.448 V -2.279 Z"
       style="fill:#020202;fill-opacity:1;fill-rule:nonzero;stroke:none"
       transform="matrix(1.3333311,0,0,-1.3333333,171.14535,27.123806)"
       clip-path="url(#clipPath54)" />
    <path
       id="path55"
       d="M 0,0 C 2.088,-0.021 3.526,1.403 3.536,3.502 3.546,5.562 2.167,7.01 0.161,7.045 -2.034,7.083 -3.5,5.685 -3.513,3.544 -3.525,1.46 -2.099,0.022 0,0 m 3.593,8.168 c 0.048,0.465 0.084,0.81 0.124,1.191 H 6.453 V -2.283 h -2.7 c -0.051,0.49 -0.099,0.949 -0.149,1.436 -2.67,-2.341 -6.332,-2.346 -8.48,-0.045 -2.118,2.269 -2.079,6.814 0.078,9.025 2.211,2.266 5.857,2.324 8.391,0.035"
       style="fill:#020202;fill-opacity:1;fill-rule:nonzero;stroke:none"
       transform="matrix(1.3333311,0,0,-1.3333333,238.66376,27.123806)"
       clip-path="url(#clipPath56)" />
    <path
       id="path57"
       d="M 0,0 C 2.072,0.003 3.494,1.464 3.47,3.568 3.447,5.623 2.052,7.032 0.029,7.045 -2.153,7.058 -3.604,5.623 -3.579,3.478 -3.554,1.397 -2.114,-0.003 0,0 M 6.391,-2.297 H 3.683 C 3.633,-1.786 3.588,-1.328 3.528,-0.724 2.349,-2.128 0.923,-2.693 -0.752,-2.638 -2.324,-2.586 -3.736,-2.1 -4.862,-0.966 -7.03,1.217 -7.06,5.8 -4.94,8.056 c 2.194,2.334 5.869,2.426 8.461,0.132 0.044,0.42 0.082,0.78 0.123,1.174 h 2.747 z"
       style="fill:#020202;fill-opacity:1;fill-rule:nonzero;stroke:none"
       transform="matrix(1.3333311,0,0,-1.3333333,402.2719,27.123806)"
       clip-path="url(#clipPath58)" />
    <path
       id="path59"
       d="M 0,0 C -0.336,1.654 -1.253,2.366 -2.958,2.371 -4.69,2.376 -5.866,1.51 -6.149,0 Z m 2.855,-2.422 h -9.048 c 0.221,-2.454 3.449,-3.172 6.554,-1.416 0.564,-0.527 1.157,-1.083 1.75,-1.637 -1.638,-1.89 -5.062,-2.539 -7.77,-1.518 -2.391,0.902 -3.734,2.968 -3.716,5.717 0.017,2.786 1.4,4.9 3.8,5.807 4.923,1.863 8.747,-1.227 8.43,-6.953"
       style="fill:#020202;fill-opacity:1;fill-rule:nonzero;stroke:none"
       transform="matrix(1.3333311,0,0,-1.3333333,456.92248,20.629666)"
       clip-path="url(#clipPath60)" />
    <path
       id="path61"
       d="M 0,0 H 6.206 C 5.862,1.565 5.036,2.254 3.472,2.332 1.716,2.421 0.539,1.654 0,0 M 9.065,-2.457 H 0.018 C 0.219,-4.942 3.328,-5.61 6.709,-3.838 7.194,-4.4 7.711,-5.001 8.232,-5.605 6.489,-7.646 2.419,-8.151 -0.316,-6.626 c -2.478,1.381 -3.519,4.611 -2.47,7.661 0.909,2.643 3.714,4.244 6.711,3.831 3.831,-0.528 5.378,-2.688 5.14,-7.323"
       style="fill:#020202;fill-opacity:1;fill-rule:nonzero;stroke:none"
       transform="matrix(1.3333311,0,0,-1.3333333,467.52779,20.580336)"
       clip-path="url(#clipPath62)" />
    <path
       id="path63"
       d="M 0,0 C -1.83,-0.011 -3.158,-1.471 -3.16,-3.473 -3.163,-5.494 -1.856,-6.91 0.015,-6.914 1.941,-6.918 3.314,-5.443 3.273,-3.413 3.235,-1.494 1.792,0.011 0,0 m -6.086,-3.444 c 0.015,3.556 2.571,6.09 6.137,6.086 3.531,-0.005 6.143,-2.6 6.148,-6.11 0.006,-3.601 -2.589,-6.159 -6.221,-6.132 -3.57,0.027 -6.079,2.574 -6.064,6.156"
       style="fill:#020202;fill-opacity:1;fill-rule:nonzero;stroke:none"
       transform="matrix(1.3333311,0,0,-1.3333333,294.13527,17.788866)"
       clip-path="url(#clipPath64)" />
    <path
       id="path65"
       d="m 0,0 h -2.834 v 11.666 h 2.508 c 0.068,-0.382 0.14,-0.787 0.232,-1.305 0.257,0.155 0.425,0.232 0.565,0.345 1.599,1.288 3.349,1.653 5.258,0.801 C 7.654,10.648 8.515,9.002 8.615,7.019 8.732,4.712 8.642,2.394 8.642,0.017 H 5.758 c 0,2.102 0.031,4.244 -0.012,6.384 C 5.722,7.584 5.285,8.601 4.096,9.088 3.052,9.515 1.914,9.5 1.214,8.63 0.608,7.878 0.139,6.837 0.053,5.884 -0.124,3.951 0,1.991 0,0"
       style="fill:#020202;fill-opacity:1;fill-rule:nonzero;stroke:none"
       transform="matrix(1.3333311,0,0,-1.3333333,309.12138,30.203936)"
       clip-path="url(#clipPath66)" />
    <path
       id="path67"
       d="m 0,0 h 2.466 c 0.092,-0.425 0.18,-0.83 0.235,-1.085 1.141,0.46 2.194,1.112 3.323,1.294 2.758,0.445 5.068,-1.635 5.411,-4.675 0.054,-0.475 0.054,-0.958 0.055,-1.437 0.006,-1.909 0.003,-3.817 0.003,-5.774 H 8.568 c 0,2.075 0.015,4.14 -0.005,6.205 -0.017,1.634 -0.751,2.691 -2.038,3.021 -1.931,0.494 -3.62,-0.922 -3.709,-3.146 -0.04,-0.998 -0.007,-1.999 -0.007,-2.999 0,-0.995 0,-1.99 0,-3.059 H 0 Z"
       style="fill:#020202;fill-opacity:1;fill-rule:nonzero;stroke:none"
       transform="matrix(1.3333311,0,0,-1.3333333,414.49602,14.631536)"
       clip-path="url(#clipPath68)" />
    <path
       id="path69"
       d="m 0,0 h -2.205 v 2.519 h 2.096 C -0.063,4.656 0.304,6.594 2.486,7.508 4.199,8.227 5.83,7.952 7.525,6.947 7.194,6.269 6.874,5.612 6.7,5.255 5.484,5.143 4.38,5.278 3.535,4.872 3.038,4.634 2.954,3.536 2.593,2.583 H 4.549 6.3 V 0.037 H 2.895 V -9.079 H 0 Z"
       style="fill:#020202;fill-opacity:1;fill-rule:nonzero;stroke:none"
       transform="matrix(1.3333311,0,0,-1.3333333,219.58579,18.087936)"
       clip-path="url(#clipPath70)" />
    <path
       id="path71"
       d="m 0,0 c -3.478,-1.785 -6.563,0.015 -6.593,3.794 -0.013,1.67 -0.002,3.341 -0.002,5.093 h -2.153 v 2.45 h 2.158 v 3.078 c 1,0.108 1.89,0.203 2.879,0.309 v -3.326 h 3.237 V 8.915 h -3.217 c 0,-1.932 -0.082,-3.792 0.03,-5.639 C -3.591,2.12 -2.673,1.838 -0.757,2.274 -0.507,1.524 -0.252,0.758 0,0"
       style="fill:#020202;fill-opacity:1;fill-rule:nonzero;stroke:none"
       transform="matrix(1.3333311,0,0,-1.3333333,442.7133,29.756606)"
       clip-path="url(#clipPath72)" />
    <path
       id="path73"
       d="m 0,0 c 0.259,-0.831 0.491,-1.577 0.72,-2.314 -3.582,-1.764 -6.567,0.052 -6.583,3.947 -0.006,1.593 -10e-4,3.186 -10e-4,4.875 -0.739,0.04 -1.431,0.077 -2.161,0.117 v 2.426 h 2.142 v 3.043 c 0.955,0.114 1.849,0.222 2.835,0.341 V 9.126 H 0.264 V 6.609 h -3.232 c 0,-1.896 -0.053,-3.718 0.021,-5.534 0.039,-0.938 0.693,-1.409 1.64,-1.347 C -0.918,-0.246 -0.536,-0.115 0,0"
       style="fill:#020202;fill-opacity:1;fill-rule:nonzero;stroke:none"
       transform="matrix(1.3333311,0,0,-1.3333333,191.81758,26.689806)"
       clip-path="url(#clipPath74)" />
    <path
       id="path75"
       d="m 0,0 h -2.164 v 2.414 h 2.108 v 3.074 c 0.999,0.12 1.894,0.228 2.879,0.346 V 2.52 H 6.131 V 0.005 H 2.896 c 0,-1.896 -0.054,-3.72 0.022,-5.539 0.04,-0.938 0.701,-1.403 1.647,-1.338 0.389,0.026 0.77,0.156 1.278,0.266 C 6.098,-7.389 6.347,-8.157 6.594,-8.915 2.955,-10.671 0.016,-8.874 0.001,-4.959 -0.005,-3.366 0,-1.773 0,0"
       style="fill:#020202;fill-opacity:1;fill-rule:nonzero;stroke:none"
       transform="matrix(1.3333311,0,0,-1.3333333,267.83932,17.889006)"
       clip-path="url(#clipPath76)" />
    <path
       id="path77"
       d="m 0,0 h -2.86 v 11.796 c 2.556,-0.003 2.556,-0.003 2.953,-0.987 1.964,1.774 4.314,1.871 6.256,0.214 C 5.961,10.26 5.565,9.483 5.125,8.619 4.842,8.767 4.586,8.919 4.316,9.04 2.167,9.999 0.065,8.717 0.01,6.368 -0.039,4.263 0,2.156 0,0"
       style="fill:#020202;fill-opacity:1;fill-rule:nonzero;stroke:none"
       transform="matrix(1.3333311,0,0,-1.3333333,384.70046,30.199536)"
       clip-path="url(#clipPath78)" />
    <path
       id="path79"
       d="M 0,0 C 0.007,2.006 1.491,3.461 3.498,3.431 5.451,3.401 6.894,1.967 6.921,0.027 6.949,-1.961 5.472,-3.448 3.465,-3.454 1.446,-3.459 -0.007,-2.011 0,0"
       style="fill:#228b22;fill-opacity:1;fill-rule:nonzero;stroke:none"
       transform="matrix(1.3333326,0,0,-1.3333333,86.399955,-56.848704)"
       clip-path="url(#clipPath80)" />
    <path
       id="path81"
       d="M 0,0 C -2.006,0.094 -3.363,1.599 -3.278,3.638 -3.198,5.56 -1.666,6.955 0.283,6.881 2.289,6.805 3.725,5.271 3.641,3.295 3.557,1.31 2.006,-0.094 0,0"
       style="fill:#228b22;fill-opacity:1;fill-rule:nonzero;stroke:none"
       transform="matrix(1.3333326,0,0,-1.3333333,520.21346,-52.244974)"
       clip-path="url(#clipPath82)" />
    <path
       id="path83"
       d="m 272.961,306.911 h 2.74 v -11.657 h -2.74 z"
       style="fill:#020202;fill-opacity:1;fill-rule:nonzero;stroke:none"
       transform="matrix(1.3333311,0,0,-1.3333333,-84.752638,423.84354)"
       clip-path="url(#clipPath84)" />
    <path
       id="path85"
       d="m 212.821,295.216 h -2.74 v 11.65 h 2.74 z"
       style="fill:#020202;fill-opacity:1;fill-rule:nonzero;stroke:none"
       transform="matrix(1.3333311,0,0,-1.3333333,-84.752638,423.84354)"
       clip-path="url(#clipPath86)" />
    <path
       id="path87"
       d="m 343.762,306.911 h 2.74 v -11.657 h -2.74 z"
       style="fill:#020202;fill-opacity:1;fill-rule:nonzero;stroke:none"
       transform="matrix(1.3333311,0,0,-1.3333333,-84.752638,423.84354)"
       clip-path="url(#clipPath88)" />
    <path
       id="path89"
       d="m 0,0 c -0.025,-1.012 -0.755,-1.688 -1.791,-1.659 -1.009,0.028 -1.714,0.783 -1.668,1.785 0.043,0.91 0.808,1.625 1.735,1.62 C -0.743,1.74 0.024,0.963 0,0"
       style="fill:#020202;fill-opacity:1;fill-rule:nonzero;stroke:none"
       transform="matrix(1.3333311,0,0,-1.3333333,199.49889,10.253806)"
       clip-path="url(#clipPath90)" />
    <path
       id="path91"
       d="m 0,0 c -0.023,-1.013 -0.751,-1.69 -1.787,-1.663 -1.009,0.027 -1.716,0.78 -1.672,1.781 0.041,0.912 0.803,1.627 1.732,1.624 C -0.745,1.739 0.022,0.965 0,0"
       style="fill:#020202;fill-opacity:1;fill-rule:nonzero;stroke:none"
       transform="matrix(1.3333311,0,0,-1.3333333,377.73901,10.248866)"
       clip-path="url(#clipPath92)" />
    <path
       id="path93"
       d="m 0,0 c -0.013,-1.015 -0.734,-1.7 -1.769,-1.682 -1.01,0.017 -1.724,0.762 -1.69,1.764 0.031,0.914 0.784,1.635 1.714,1.642 C -0.765,1.731 0.013,0.962 0,0"
       style="fill:#020202;fill-opacity:1;fill-rule:nonzero;stroke:none"
       transform="matrix(1.3333311,0,0,-1.3333333,283.33863,10.224866)"
       clip-path="url(#clipPath94)" />
    <path
       id="path95"
       d="m 0,0 c 1.104,0.657 2.01,1.206 2.926,1.738 20.416,11.868 40.833,23.733 61.251,35.599 1.243,0.722 2.509,1.406 3.72,2.177 0.582,0.37 0.998,0.39 1.617,0.028 18.073,-10.584 36.16,-21.146 54.249,-31.703 7.822,-4.565 15.656,-9.111 23.569,-13.715 0,-0.365 0,-0.802 0,-1.239 0,-12.56 -0.007,-25.12 0.014,-37.679 0.002,-0.976 -0.166,-1.547 -1.17,-2.115 -11.005,-6.227 -21.954,-12.554 -32.922,-18.848 -14.531,-8.341 -29.074,-16.663 -43.58,-25.046 -1.037,-0.6 -1.644,-0.721 -2.785,-0.061 -20.93,12.098 -41.907,24.115 -62.873,36.15 -4.601,2.641 -9.209,5.272 -13.785,7.956 -0.383,0.225 -0.785,0.82 -0.782,1.24 0.075,9.038 0.205,18.076 0.331,27.114 0.004,0.26 0.079,0.52 0.148,0.949 2.339,-1.365 4.568,-2.659 6.792,-3.963 15.967,-9.363 31.934,-18.728 47.9,-28.092 7.675,-4.501 15.357,-8.99 23.014,-13.52 0.778,-0.46 1.34,-0.504 2.145,-0.027 17.334,10.269 34.69,20.502 52.023,30.774 0.393,0.234 0.771,0.832 0.8,1.284 0.209,3.192 0.303,6.391 0.486,9.585 0.047,0.823 -0.189,1.288 -0.936,1.712 C 106.481,-10.781 90.827,-1.83 75.169,7.115 73.091,8.302 71.02,9.506 68.913,10.641 68.581,10.82 67.971,10.843 67.662,10.655 61.762,7.069 55.888,3.44 50.01,-0.183 49.949,-0.221 49.917,-0.307 49.701,-0.608 57.419,-5.036 65.114,-9.45 73.037,-13.994 71.32,-15.24 69.822,-16.335 68.316,-17.418 62.77,-21.406 57.208,-25.371 51.691,-29.397 50.952,-29.936 50.48,-29.662 49.884,-29.313 36.666,-21.56 23.445,-13.812 10.224,-6.064 7.057,-4.207 3.886,-2.357 0.718,-0.501 0.554,-0.405 0.405,-0.284 0,0"
       style="fill:#020202;fill-opacity:1;fill-rule:nonzero;stroke:none"
       transform="matrix(1.3333326,0,0,-1.3333333,226.91842,-252.69014)"
       clip-path="url(#clipPath96)" />
    <path
       id="path97"
       d="m 0,0 c -2.587,1.477 -5.03,2.873 -7.474,4.268 -12.367,7.055 -24.734,14.109 -37.101,21.164 -11.227,6.405 -22.458,12.802 -33.669,19.236 -0.763,0.437 -1.3,0.417 -2.045,-0.016 -16.069,-9.351 -32.154,-18.676 -48.235,-28.005 -9.35,-5.424 -18.7,-10.847 -28.047,-16.273 -0.466,-0.271 -0.912,-0.574 -1.534,-0.967 0,0.614 0,1.074 0,1.533 0,8.558 0.013,17.117 -0.02,25.675 -0.003,0.939 0.242,1.467 1.107,1.969 20.665,11.998 41.307,24.035 61.952,36.067 5.204,3.033 10.397,6.085 15.621,9.084 0.342,0.196 1,0.185 1.344,-0.015 15.999,-9.306 31.98,-18.643 47.962,-27.976 9.612,-5.614 19.23,-11.217 28.821,-16.866 0.455,-0.268 0.953,-0.928 0.963,-1.415 C -0.177,18.548 -0.07,9.632 0.05,0.716 0.052,0.557 0.029,0.398 0,0"
       style="fill:#020202;fill-opacity:1;fill-rule:nonzero;stroke:none"
       transform="matrix(1.3333326,0,0,-1.3333333,423.60657,-275.2576)"
       clip-path="url(#clipPath98)" />
  </g>
</svg>
